<svg xmlns="http://www.w3.org/2000/svg"  viewBox="0 0 50 50" width="50px" height="50px"><path d="M 17.722656 10 C 13.456656 10 10 13.456656 10 17.722656 L 10 32.277344 C 10 36.543344 13.456656 40 17.722656 40 L 32.277344 40 C 36.543344 40 40 36.543344 40 32.277344 L 40 17.769531 C 40 13.478531 36.521469 10 32.230469 10 L 17.722656 10 z M 17 11 L 33 11 C 36.314 11 39 13.686 39 17 L 39 33 C 39 36.314 36.314 39 33 39 L 17 39 C 13.686 39 11 36.314 11 33 L 11 17 C 11 13.686 13.686 11 17 11 z M 20.714844 19.443359 C 17.645844 19.443359 15.15625 21.931 15.15625 25 C 15.15625 28.069 17.645844 30.556641 20.714844 30.556641 C 23.783844 30.556641 26.271484 28.069 26.271484 25 C 26.271484 21.931 23.783844 19.443359 20.714844 19.443359 z M 29.576172 19.710938 C 28.056172 19.710938 26.826172 22.079 26.826172 25 C 26.826172 27.921 28.057172 30.289062 29.576172 30.289062 C 31.095172 30.289062 32.328125 27.921 32.328125 25 C 32.328125 22.079 31.096172 19.710938 29.576172 19.710938 z M 33.849609 20.275391 C 33.320609 20.275391 32.892578 22.391 32.892578 25 C 32.892578 27.609 33.321609 29.724609 33.849609 29.724609 C 34.377609 29.724609 34.806641 27.609 34.806641 25 C 34.806641 22.391 34.377609 20.275391 33.849609 20.275391 z"/></svg>